<?xml version="1.0" encoding="iso-8859-1"?>
<!-- Uploaded to: SVG Repo, www.svgrepo.com, Generator: SVG Repo Mixer Tools -->
<svg height="800px" width="800px" version="1.1" id="Layer_1" xmlns="http://www.w3.org/2000/svg" xmlns:xlink="http://www.w3.org/1999/xlink" 
	 viewBox="0 0 511.999 511.999" xml:space="preserve">
<path style="fill:#57545C;" d="M276.438,504.333c-137.168,0-248.366-111.197-248.366-248.366S139.27,7.602,276.438,7.602V48.89
	V504.333z"/>
<path style="opacity:0.43;fill:#1D1D20;enable-background:new    ;" d="M66.12,294.015c0,58.892,45.986,87.51,80.236,130.082
	c42.572,34.25,71.19-2.894,130.082-2.894V48.89v-0.342C157.331,66.859,66.12,169.784,66.12,294.015z"/>
<path style="fill:#D7D5D9;" d="M223.148,87.198c16.001-2.884,32.319-5.775,49.29-5.775c116.801,0,211.487,94.686,211.487,211.487
	s-94.686,211.488-211.487,211.488S60.951,409.711,60.951,292.91c0-79.82,44.22-149.311,109.498-185.315
	C170.449,107.595,200.033,91.363,223.148,87.198z"/>
<g>
	<circle style="opacity:0.45;fill:#2F2D30;enable-background:new    ;" cx="271.516" cy="176.906" r="56.397"/>
	<circle style="opacity:0.45;fill:#2F2D30;enable-background:new    ;" cx="271.516" cy="407.473" r="56.397"/>
	<circle style="opacity:0.45;fill:#2F2D30;enable-background:new    ;" cx="157.839" cy="293.796" r="56.397"/>
	<circle style="opacity:0.45;fill:#2F2D30;enable-background:new    ;" cx="392.714" cy="293.796" r="56.397"/>
</g>
<g>
	<path style="opacity:0.99;fill:#781900;enable-background:new    ;" d="M322.829,163.122
		c-33.271-13.122-70.57-12.957-103.739,0.494h-2.38c-1.03,4.263-1.589,8.71-1.589,13.289c0,31.147,25.249,56.397,56.396,56.397
		s56.397-25.25,56.397-56.397c0-4.756-0.595-9.372-1.704-13.784h-3.38V163.122z"/>
	<path style="opacity:0.99;fill:#781900;enable-background:new    ;" d="M220.203,421.179c33.271,13.122,70.57,12.957,103.739-0.494
		h2.38c1.03-4.263,1.589-8.71,1.589-13.289c0-31.147-25.249-56.397-56.397-56.397s-56.397,25.25-56.397,56.397
		c0,4.756,0.595,9.372,1.704,13.784h3.38V421.179z"/>
	<path style="opacity:0.99;fill:#781900;enable-background:new    ;" d="M406.498,345.108c13.122-33.271,12.957-70.57-0.494-103.739
		v-2.38c-4.263-1.03-8.71-1.589-13.289-1.589c-31.147,0-56.397,25.249-56.397,56.396s25.25,56.397,56.397,56.397
		c4.756,0,9.372-0.595,13.784-1.704v-3.38H406.498z"/>
	<path style="opacity:0.99;fill:#781900;enable-background:new    ;" d="M144.055,242.482
		c-13.122,33.271-12.957,70.57,0.494,103.739v2.38c4.263,1.03,8.71,1.589,13.289,1.589c31.147,0,56.396-25.249,56.396-56.397
		s-25.25-56.396-56.396-56.396c-4.756,0-9.372,0.595-13.784,1.704v3.38H144.055z"/>
</g>
<circle style="fill:#57545C;" cx="271.516" cy="292.914" r="22.234"/>
<path style="opacity:0.19;fill:#2F2D30;enable-background:new    ;" d="M382.224,111.161c18.88,31.652,29.737,68.643,29.737,108.175
	c0,116.801-94.686,211.487-211.487,211.487c-39.532,0-76.523-10.858-108.175-29.737c36.902,61.866,104.48,103.312,181.749,103.312
	c116.801,0,211.487-94.686,211.487-211.487C485.536,215.641,444.09,148.063,382.224,111.161z"/>
<path d="M427.358,137.991c-41.382-41.381-96.4-64.17-154.92-64.17c-17.252,0-34.428,2.012-51.055,5.981
	c-4.084,0.975-6.604,5.076-5.629,9.159c0.975,4.085,5.076,6.606,9.16,5.63c15.471-3.694,31.461-5.566,47.524-5.566
	c112.422,0,203.884,91.462,203.884,203.885c0,111.008-89.179,201.57-199.655,203.832c-0.077-0.002-0.153-0.011-0.23-0.011
	c-18.064,0-35.663-2.014-52.6-5.804C134.807,469.07,68.554,388.588,68.554,292.911c0-74.287,40.451-142.744,105.567-178.659
	c3.676-2.028,5.013-6.652,2.985-10.328c-2.028-3.676-6.652-5.012-10.328-2.985c-69.966,38.587-113.43,112.147-113.43,191.972
	c0,32.894,7.201,64.681,20.855,93.561c-24.364-37.625-38.53-82.439-38.53-130.504c0-130.213,103.909-236.615,233.161-240.644v33.567
	c0,4.199,3.404,7.602,7.602,7.602c4.199,0,7.602-3.403,7.602-7.602V7.602c0-4.199-3.403-7.602-7.602-7.602
	c-68.37,0-132.65,26.626-180.995,74.971c-48.346,48.345-74.971,112.625-74.971,180.996s26.626,132.651,74.971,180.996
	c34.936,34.935,78.194,58.521,125.301,68.922c16.73,4.028,34.051,6.114,51.695,6.114c58.52,0,113.539-22.789,154.92-64.171
	c41.38-41.38,64.17-96.399,64.17-154.919S468.738,179.372,427.358,137.991z"/>
<path d="M271.516,112.908c-35.289,0-63.999,28.71-63.999,64c0,35.288,28.71,63.999,63.999,63.999s63.999-28.71,63.999-63.999
	C335.515,141.617,306.805,112.908,271.516,112.908z M271.516,128.112c17.741,0,33.297,9.521,41.839,23.718
	c-27.393-8.135-56.337-8.126-83.694,0.03C238.198,137.646,253.762,128.112,271.516,128.112z M271.516,225.701
	c-26.905,0-48.794-21.889-48.794-48.794c0-2.286,0.17-4.532,0.475-6.735c31.164-12.276,65.414-12.308,96.63-0.058
	c0.311,2.222,0.483,4.487,0.483,6.793C320.31,203.812,298.422,225.701,271.516,225.701z"/>
<path d="M271.516,471.472c35.289,0,63.999-28.71,63.999-63.999s-28.71-63.999-63.999-63.999s-63.999,28.711-63.999,63.999
	S236.227,471.472,271.516,471.472z M271.516,456.267c-17.041,0-32.061-8.787-40.79-22.061c13.366,3.864,27.112,5.804,40.858,5.804
	c13.694,0,27.385-1.918,40.686-5.748C303.536,447.505,288.533,456.267,271.516,456.267z M271.516,358.679
	c26.905,0,48.794,21.889,48.794,48.794c0,2.821-0.254,5.582-0.716,8.273c-30.498,11.901-64.141,12.08-94.778,0.488
	c-0.448-0.169-0.903-0.289-1.358-0.371c-0.475-2.728-0.737-5.528-0.737-8.39C222.722,380.568,244.611,358.679,271.516,358.679z"/>
<path d="M157.838,229.797c-35.289,0-63.999,28.71-63.999,63.999s28.71,64,63.999,64s63.999-28.71,63.999-64
	C221.837,258.506,193.127,229.797,157.838,229.797z M109.044,293.795c0-16.434,8.175-30.985,20.664-39.831
	c-7.225,26.278-7.016,53.922,0.639,80.118C117.495,325.284,109.044,310.51,109.044,293.795z M157.838,342.59
	c-3.007,0-5.948-0.288-8.806-0.812c-0.047-0.143-0.088-0.286-0.144-0.428c-12.127-30.744-12.314-64.562-0.58-95.408
	c3.084-0.613,6.269-0.941,9.531-0.941c26.905,0,48.794,21.889,48.794,48.794S184.743,342.59,157.838,342.59z"/>
<path d="M392.715,357.794c35.288,0,63.999-28.71,63.999-64c0-35.288-28.71-63.999-63.999-63.999s-64,28.71-64,63.999
	C328.715,329.084,357.425,357.794,392.715,357.794z M441.509,293.795c0,20.325-12.495,37.779-30.204,45.106
	c9.613-29.189,9.856-60.552,0.672-89.929C429.33,256.458,441.509,273.728,441.509,293.795z M392.715,245.001
	c0.704,0,1.403,0.023,2.1,0.053c0.061,0.646,0.197,1.294,0.433,1.932c11.425,30.848,10.966,64.637-1.29,95.143
	c-0.058,0.144-0.101,0.289-0.149,0.434c-0.365,0.008-0.727,0.027-1.093,0.027c-26.905,0-48.795-21.89-48.795-48.795
	S365.809,245.001,392.715,245.001z"/>
<path d="M301.351,292.911c0-16.451-13.384-29.836-29.835-29.836s-29.836,13.384-29.836,29.836s13.384,29.836,29.836,29.836
	C287.967,322.746,301.351,309.362,301.351,292.911z M256.885,292.911c0-8.067,6.563-14.632,14.632-14.632s14.63,6.564,14.63,14.632
	c0,8.067-6.563,14.632-14.63,14.632C263.45,307.543,256.885,300.979,256.885,292.911z"/>
</svg>